<svg width="21" height="21" viewBox="0 0 21 21" fill="none" xmlns="http://www.w3.org/2000/svg">
<path d="M9.07032 17.6165C9.0703 17.4766 9.03802 17.3383 8.97578 17.2115C8.91353 17.0848 8.82284 16.9726 8.71014 16.883C8.59743 16.7935 8.46546 16.7287 8.32359 16.6932C8.18171 16.6577 8.03341 16.6525 7.88917 16.6778C6.58009 16.9072 4.92726 16.9416 4.4878 15.7634C4.10461 14.8508 3.46987 14.0543 2.65089 13.4581C2.59246 13.4278 2.53677 13.3928 2.48439 13.3537C2.41272 13.1732 2.2854 13.0177 2.11925 12.9077C1.95311 12.7977 1.75592 12.7384 1.55372 12.7375H1.54884C1.28444 12.7374 1.03077 12.8373 0.843354 13.0154C0.655937 13.1934 0.55004 13.435 0.548842 13.6874C0.544932 14.4658 1.35984 14.9645 1.69044 15.1332C2.08029 15.5071 2.39359 15.9472 2.61427 16.4308C2.97853 17.4078 4.03712 18.8899 7.08009 18.6989C7.08109 18.7324 7.08204 18.7641 7.08253 18.793L7.08692 19.0484C7.08692 19.3016 7.19228 19.5444 7.37982 19.7234C7.56735 19.9024 7.82171 20.003 8.08692 20.003C8.35214 20.003 8.60649 19.9024 8.79403 19.7234C8.98157 19.5444 9.08692 19.3016 9.08692 19.0484L9.08204 18.7445C9.07716 18.5637 9.07032 18.3017 9.07032 17.6165ZM19.7373 3.17791C19.7691 3.05859 19.8003 2.92622 19.8277 2.77707C19.9894 1.7133 19.8484 0.627587 19.4195 -0.366289C19.3653 -0.495858 19.2822 -0.612558 19.1758 -0.708209C19.0694 -0.80386 18.9425 -0.876146 18.8037 -0.92C18.4477 -1.03466 17.1333 -1.26025 14.6197 0.273197C12.5302 -0.196164 10.3551 -0.196164 8.26565 0.273197C5.76222 -1.23779 4.4546 -1.03275 4.10206 -0.92462C3.95993 -0.882542 3.82946 -0.810639 3.72021 -0.71418C3.61097 -0.617721 3.52572 -0.49915 3.47071 -0.367158C3.03301 0.645799 2.89355 1.75366 3.06739 2.83676C3.09181 2.95887 3.11817 3.07167 3.14552 3.17514C2.31709 4.22844 1.87583 5.5132 1.89015 6.83024C1.88745 7.12408 1.90163 7.41785 1.93263 7.71021C2.26663 12.1036 5.26663 13.4227 7.35694 13.8757C7.31349 13.995 7.27394 14.1227 7.23878 14.2579C7.17612 14.5035 7.21805 14.7628 7.35538 14.9789C7.49271 15.1951 7.71422 15.3504 7.97135 15.4109C8.22848 15.4713 8.50024 15.432 8.72703 15.3015C8.95382 15.171 9.11713 14.9599 9.18116 14.7147C9.24479 14.3966 9.40788 14.1044 9.64894 13.8766C9.7947 13.7548 9.90023 13.5952 9.9527 13.4172C10.0052 13.2392 10.0023 13.0505 9.94447 12.874C9.88663 12.6975 9.77631 12.5408 9.62693 12.4231C9.47754 12.3054 9.29554 12.2316 9.10304 12.2108C5.64894 11.8342 4.14942 10.4909 3.92384 7.53498C3.89885 7.30085 3.88761 7.06557 3.89015 6.83025C3.87411 5.89159 4.19898 4.97657 4.80958 4.24064C4.87094 4.16391 4.93628 4.09017 5.00538 4.0197C5.12781 3.88893 5.21013 3.72849 5.2433 3.55598C5.27646 3.38348 5.25919 3.20559 5.19338 3.04184C5.12592 2.86957 5.07397 2.69212 5.03811 2.51143C4.95664 1.9976 4.98337 1.47343 5.11671 0.969585C5.98585 1.2039 6.80383 1.58532 7.53171 2.09566C7.65208 2.17219 7.78828 2.22312 7.93108 2.24499C8.07388 2.26687 8.21994 2.25918 8.35935 2.22244C10.3805 1.69887 12.5113 1.6992 14.5322 2.2234C14.6724 2.26009 14.8192 2.26734 14.9626 2.24465C15.106 2.22196 15.2425 2.16987 15.3628 2.09196C16.0872 1.5795 16.9018 1.19468 17.768 0.95563C17.9008 1.44737 17.9305 1.95931 17.8554 2.46204C17.8192 2.66014 17.7626 2.85436 17.6865 3.04186C17.6207 3.20561 17.6034 3.3835 17.6366 3.556C17.6697 3.7285 17.7521 3.88895 17.8745 4.01972C17.9516 4.10268 18.0288 4.19217 18.0981 4.27607C18.7044 4.99954 19.0238 5.90404 19 6.83024C19.0018 7.07805 18.9893 7.32576 18.9624 7.57225C18.7422 10.4891 17.2368 11.8333 13.7666 12.2108C13.5741 12.2317 13.392 12.3056 13.2427 12.4235C13.0933 12.5413 12.983 12.6981 12.9253 12.8746C12.8675 13.0512 12.8647 13.24 12.9172 13.418C12.9698 13.5961 13.0754 13.7557 13.2212 13.8776C13.4698 14.1114 13.6333 14.4153 13.6875 14.7445C13.7551 15 13.7861 15.2631 13.7798 15.5266V17.7545C13.77 18.3725 13.77 18.8358 13.77 19.0484C13.77 19.3015 13.8754 19.5443 14.0629 19.7234C14.2504 19.9024 14.5048 20.0029 14.77 20.0029C15.0352 20.0029 15.2896 19.9024 15.4771 19.7234C15.6647 19.5443 15.77 19.3015 15.77 19.0484C15.77 18.8414 15.77 18.3875 15.7798 17.7694V15.5266C15.7878 15.1045 15.7358 14.6834 15.625 14.2747C15.5933 14.1405 15.5545 14.008 15.5088 13.8776C17.03 13.6363 18.4123 12.8876 19.4094 11.7648C20.4065 10.6419 20.9539 9.21767 20.9541 7.74565C20.987 7.44155 21.0024 7.13595 21 6.83024C21.0222 5.51177 20.5773 4.2248 19.7373 3.17793L19.7373 3.17791Z" fill="#232E35"/>
</svg>
