<svg width="22" height="21" viewBox="0 0 22 21" fill="none" xmlns="http://www.w3.org/2000/svg">
<path d="M16.5 7.6512C15.6047 7.65084 14.7233 7.86196 13.9345 8.2657C13.8626 8.08496 13.7346 7.92937 13.5677 7.81961C13.4008 7.70985 13.2027 7.65111 13 7.6512H8.99997C8.86863 7.65113 8.73856 7.67574 8.6172 7.72363C8.49584 7.77152 8.38557 7.84174 8.2927 7.93029C8.19982 8.01884 8.12617 8.12397 8.07594 8.23967C8.02571 8.35538 7.9999 8.47939 7.99997 8.60461V20.0455C7.99989 20.1707 8.02571 20.2947 8.07594 20.4104C8.12616 20.5261 8.19982 20.6313 8.29269 20.7198C8.38557 20.8084 8.49584 20.8786 8.6172 20.9265C8.73856 20.9744 8.86863 20.999 8.99997 20.9989H13C13.1313 20.999 13.2614 20.9744 13.3827 20.9265C13.5041 20.8786 13.6144 20.8084 13.7072 20.7198C13.8001 20.6313 13.8738 20.5261 13.924 20.4104C13.9742 20.2947 14 20.1707 14 20.0455V14.8018C14 14.5489 14.1053 14.3064 14.2929 14.1276C14.4804 13.9488 14.7348 13.8484 15 13.8484C15.2652 13.8484 15.5195 13.9488 15.7071 14.1276C15.8946 14.3064 16 14.5489 16 14.8018V20.0455C15.9999 20.1707 16.0257 20.2947 16.0759 20.4104C16.1262 20.5261 16.1998 20.6313 16.2927 20.7198C16.3856 20.8084 16.4958 20.8786 16.6172 20.9265C16.7386 20.9744 16.8686 20.999 17 20.9989H21C21.1313 20.999 21.2614 20.9744 21.3827 20.9265C21.5041 20.8786 21.6144 20.8084 21.7072 20.7198C21.8001 20.6313 21.8738 20.5261 21.924 20.4104C21.9742 20.2947 22 20.1707 22 20.0455V12.8949C21.9982 11.5047 21.4181 10.172 20.3871 9.18897C19.356 8.20595 17.9581 7.65293 16.5 7.6512V7.6512ZM20 19.0921H18V14.8018C18 14.0432 17.6839 13.3157 17.1213 12.7793C16.5587 12.2429 15.7956 11.9415 15 11.9415C14.2043 11.9415 13.4413 12.2429 12.8786 12.7793C12.316 13.3157 12 14.0432 12 14.8018V19.0921H9.99997V9.55802H12V10.2284C12.0001 10.4259 12.0645 10.6186 12.1844 10.7797C12.3043 10.9408 12.4737 11.0625 12.6692 11.1279C12.8647 11.1933 13.0767 11.1992 13.2759 11.1448C13.4751 11.0904 13.6517 10.9784 13.7812 10.8243C14.23 10.2809 14.8456 9.88462 15.542 9.69089C16.2384 9.49716 16.9808 9.51561 17.6657 9.74365C18.3506 9.9717 18.9437 10.398 19.3621 10.9629C19.7806 11.5279 20.0036 12.2033 20 12.8949V19.0921ZM5.99997 7.6512H1.99997C1.86863 7.65113 1.73856 7.67574 1.6172 7.72363C1.49584 7.77152 1.38557 7.84174 1.2927 7.93029C1.19982 8.01884 1.12617 8.12397 1.07594 8.23967C1.02571 8.35538 0.999896 8.47939 0.999971 8.60461V20.0455C0.999895 20.1707 1.02571 20.2947 1.07594 20.4104C1.12616 20.5261 1.19982 20.6313 1.29269 20.7198C1.38557 20.8084 1.49584 20.8786 1.6172 20.9265C1.73856 20.9744 1.86863 20.999 1.99997 20.9989H5.99997C6.13131 20.999 6.26138 20.9744 6.38274 20.9265C6.5041 20.8786 6.61437 20.8084 6.70725 20.7198C6.80012 20.6313 6.87378 20.5261 6.92401 20.4104C6.97423 20.2947 7.00005 20.1707 6.99997 20.0455V8.60461C7.00005 8.47939 6.97423 8.35538 6.924 8.23967C6.87377 8.12397 6.80012 8.01884 6.70724 7.93029C6.61437 7.84174 6.5041 7.77152 6.38274 7.72363C6.26138 7.67574 6.13131 7.65113 5.99997 7.6512V7.6512ZM4.99997 19.0921H2.99997V9.55802H4.99997V19.0921ZM4.01462 0.54164C3.57698 0.516664 3.13859 0.576818 2.7261 0.718444C2.31361 0.860071 1.93564 1.08021 1.61519 1.36547C1.29473 1.65074 1.03849 1.99516 0.862029 2.37781C0.685573 2.76045 0.592594 3.17332 0.588747 3.5913C0.584901 4.00928 0.670268 4.42363 0.839656 4.80917C1.00904 5.19471 1.25891 5.54337 1.57407 5.83395C1.88922 6.12453 2.26308 6.35096 2.6729 6.49946C3.08272 6.64797 3.51994 6.71545 3.95797 6.69779H3.98629C4.42509 6.72264 4.86459 6.66193 5.27795 6.51936C5.6913 6.3768 6.06983 6.15538 6.39039 5.86862C6.71096 5.58187 6.96683 5.23581 7.14238 4.85159C7.31793 4.46738 7.40946 4.05307 7.41139 3.63398C7.41332 3.21489 7.3256 2.79983 7.15359 2.41416C6.98158 2.02849 6.7289 1.68031 6.41099 1.39088C6.09307 1.10146 5.7166 0.876882 5.30457 0.730865C4.89255 0.584848 4.45362 0.520462 4.01461 0.54164H4.01462ZM3.9863 4.79098H3.95797C3.78504 4.811 3.60961 4.79554 3.44346 4.74562C3.27731 4.69571 3.12427 4.61251 2.99461 4.50158C2.86495 4.39066 2.76167 4.25459 2.69168 4.1025C2.6217 3.9504 2.58664 3.7858 2.58884 3.61973C2.58884 2.90839 3.14841 2.44845 4.01462 2.44845C4.18932 2.42624 4.36698 2.43999 4.53564 2.48876C4.70429 2.53753 4.86003 2.62019 4.99236 2.73118C5.12468 2.84217 5.23053 2.9789 5.30276 3.13217C5.37499 3.28545 5.41193 3.4517 5.4111 3.61973C5.4111 4.33105 4.85153 4.79098 3.9863 4.79098Z" fill="#232E35"/>
</svg>
