<svg width="20" height="19" viewBox="0 0 20 19" fill="none" xmlns="http://www.w3.org/2000/svg">
<path d="M12.5 4.30556C13.2372 4.44139 13.9689 4.74843 14.5 5.25C15.0311 5.75157 15.3562 6.44268 15.5 7.13889M13 1C14.5315 1.16069 15.9097 1.86045 17 2.88889C18.0903 3.91732 18.8279 5.22043 19 6.66667M18.9995 13.728V16.2872C19.0037 17.2655 18.0723 18.0824 17.0265 17.9933C8.00006 18 1.00006 11.3275 1.00713 2.85979C0.912936 1.87734 1.77364 1.001 2.80817 1.00008H5.52331C5.96253 0.996008 6.38835 1.14261 6.72138 1.41257C7.66819 2.18008 8.27719 4.78512 8.04287 5.82071C7.85994 6.62923 6.99696 7.19489 6.41026 7.74791C7.69864 9.88362 9.57471 11.652 11.8405 12.8664C12.4272 12.3133 13.0274 11.4999 13.8851 11.3275C14.9855 11.1063 17.7615 11.6823 18.5709 12.5827C18.858 12.902 19.0105 13.3096 18.9995 13.728Z" stroke="#7E74F1" stroke-width="1.5" stroke-linecap="round" stroke-linejoin="round"/>
</svg>
