<svg aria-hidden="true" style="position: absolute; width: 0; height: 0; overflow: hidden;" version="1.1" xmlns="http://www.w3.org/2000/svg" xmlns:xlink="http://www.w3.org/1999/xlink">
<defs>
<symbol id="icon-services-1" viewBox="0 0 41 32">
<path fill="none" stroke="#7e74f1" style="stroke: var(--color1, #7e74f1)" stroke-linejoin="round" stroke-linecap="round" stroke-miterlimit="4" stroke-width="3.2" d="M3.2 29.867h34.133M3.2 2.133v21.791h34.133v-21.791l-8.533 7.924-8.533-7.924-8.533 7.924-8.533-7.924z"></path>
</symbol>
<symbol id="icon-services-2" viewBox="0 0 34 32">
<path fill="#7e74f1" style="fill: var(--color1, #7e74f1)" d="M18.989 0.447c-1.225-0.59-2.886-0.599-4.121-0.011-4.317 2.652-8.882 5.179-12.793 7.714-0.582 0.444-0.995 1.089-0.988 1.848 0.007 0.756 0.428 1.392 1.007 1.829 3.891 2.215 8.456 4.742 12.678 7.645 1.225 0.59 2.886 0.599 4.121 0.011 4.439-2.913 6.265-3.755 12.793-7.714 0.582-0.444 0.995-1.089 0.988-1.848-0.007-0.756-0.428-1.392-1.007-1.829-3.77-2.476-8.335-5.004-12.678-7.645zM16.124 2.683c0.438-0.209 1.157-0.207 1.597 0.006 3.785 2.085 7.437 4.613 12.064 7.25-3.715 2.419-7.367 4.946-12.149 7.298-0.438 0.209-1.157 0.207-1.597-0.006-4.365-2.346-8.228-4.874-12.064-7.25 3.836-2.68 6.575-4.365 12.149-7.298z"></path>
<path fill="#7e74f1" style="fill: var(--color1, #7e74f1)" d="M33.674 16.183c0.401 0.592 0.205 1.372-0.436 1.741l-11.152 6.425c-1.493 0.646-3.33 1.488-5.145 1.488s-3.652-0.843-5.267-1.488l-11.030-6.353c-0.642-0.37-0.837-1.149-0.437-1.741s1.245-0.773 1.887-0.403l11.030 6.353c0.994 0.572 2.404 1.104 3.817 1.104s2.701-0.532 3.694-1.105l11.152-6.425c0.642-0.37 1.486-0.189 1.887 0.403z"></path>
<path fill="#7e74f1" style="fill: var(--color1, #7e74f1)" d="M33.674 22.51c0.401 0.592 0.205 1.372-0.436 1.742l-9.658 5.566c-2.987 1.349-4.347 2.183-6.7 2.183s-5.417-1.676-6.701-2.182l-9.535-5.493c-0.642-0.37-0.837-1.149-0.436-1.741s1.245-0.773 1.887-0.403l9.535 5.493c1.412 0.813 3.3 1.534 5.25 1.534s3.838-0.721 5.249-1.535l9.658-5.566c0.642-0.37 1.486-0.19 1.887 0.402z"></path>
</symbol>
<symbol id="icon-services-3" viewBox="0 0 35 32">
<path fill="none" stroke="#7e74f1" style="stroke: var(--color1, #7e74f1)" stroke-linejoin="miter" stroke-linecap="butt" stroke-miterlimit="4" stroke-width="2.5263" d="M32.842 16c0 7.906-6.786 14.316-15.158 14.316M32.842 16c0-7.906-6.786-14.316-15.158-14.316M32.842 16h-30.316M17.684 30.316c-8.371 0-15.158-6.409-15.158-14.316M17.684 30.316c0 0 6.737-4.772 6.737-14.316s-6.737-14.316-6.737-14.316M17.684 30.316c0 0-6.737-4.772-6.737-14.316s6.737-14.316 6.737-14.316M2.526 16c0-7.906 6.786-14.316 15.158-14.316"></path>
</symbol>
</defs>
</svg>
