<svg aria-hidden="true" style="position: absolute; width: 0; height: 0; overflow: hidden;" version="1.1" xmlns="http://www.w3.org/2000/svg" xmlns:xlink="http://www.w3.org/1999/xlink">
<defs>
<symbol id="icon-github" viewBox="0 0 32 32">
<path d="M13.821 26.844c-0-0.213-0.049-0.424-0.144-0.617s-0.233-0.364-0.405-0.501c-0.172-0.136-0.373-0.235-0.589-0.289s-0.442-0.062-0.662-0.023c-1.995 0.35-4.513 0.402-5.183-1.393-0.584-1.391-1.551-2.604-2.799-3.513-0.089-0.046-0.174-0.099-0.254-0.159-0.109-0.275-0.303-0.512-0.556-0.68s-0.554-0.258-0.862-0.259h-0.007c-0.403-0-0.789 0.152-1.075 0.423s-0.447 0.639-0.449 1.024c-0.006 1.186 1.236 1.946 1.74 2.203 0.594 0.57 1.071 1.24 1.408 1.977 0.555 1.489 2.168 3.747 6.805 3.456 0.002 0.051 0.003 0.099 0.004 0.143l0.007 0.389c0 0.386 0.161 0.756 0.446 1.029s0.673 0.426 1.078 0.426c0.404 0 0.792-0.153 1.078-0.426s0.446-0.643 0.446-1.029l-0.007-0.463c-0.007-0.276-0.018-0.675-0.018-1.719zM30.076 4.843c0.048-0.182 0.096-0.384 0.138-0.611 0.246-1.621 0.032-3.275-0.622-4.79-0.083-0.197-0.209-0.375-0.371-0.521s-0.355-0.256-0.567-0.323c-0.542-0.175-2.545-0.518-6.376 1.818-3.184-0.715-6.498-0.715-9.682 0-3.815-2.302-5.807-1.99-6.345-1.825-0.217 0.064-0.415 0.174-0.582 0.321s-0.296 0.328-0.38 0.529c-0.667 1.544-0.879 3.232-0.615 4.882 0.037 0.186 0.077 0.358 0.119 0.516-1.262 1.605-1.935 3.563-1.913 5.57-0.004 0.448 0.018 0.895 0.065 1.341 0.509 6.695 5.080 8.705 8.266 9.395-0.066 0.182-0.126 0.376-0.18 0.582-0.095 0.374-0.032 0.769 0.178 1.099s0.547 0.566 0.939 0.658c0.392 0.092 0.806 0.032 1.152-0.167s0.594-0.521 0.692-0.894c0.097-0.485 0.345-0.93 0.713-1.277 0.222-0.186 0.383-0.429 0.463-0.7s0.076-0.559-0.013-0.828-0.256-0.508-0.484-0.687c-0.228-0.179-0.505-0.292-0.798-0.323-5.263-0.574-7.548-2.621-7.892-7.125-0.038-0.357-0.055-0.715-0.051-1.074-0.024-1.43 0.471-2.825 1.401-3.946 0.093-0.117 0.193-0.229 0.298-0.337 0.187-0.199 0.312-0.444 0.363-0.707s0.024-0.534-0.076-0.783c-0.103-0.263-0.182-0.533-0.237-0.808-0.124-0.783-0.083-1.582 0.12-2.349 1.324 0.357 2.571 0.938 3.68 1.716 0.183 0.117 0.391 0.194 0.609 0.228s0.44 0.022 0.653-0.034c3.080-0.798 6.327-0.797 9.406 0.001 0.214 0.056 0.437 0.067 0.656 0.032s0.427-0.114 0.61-0.233c1.104-0.781 2.345-1.367 3.665-1.732 0.202 0.749 0.248 1.529 0.133 2.295-0.055 0.302-0.141 0.598-0.257 0.884-0.1 0.25-0.127 0.521-0.076 0.783s0.176 0.507 0.363 0.707c0.117 0.126 0.235 0.263 0.341 0.391 0.924 1.102 1.411 2.481 1.374 3.892 0.003 0.378-0.016 0.755-0.057 1.131-0.336 4.445-2.63 6.493-7.917 7.068-0.293 0.032-0.571 0.144-0.798 0.324s-0.396 0.418-0.484 0.687c-0.088 0.269-0.092 0.557-0.012 0.828s0.241 0.515 0.463 0.7c0.379 0.356 0.628 0.819 0.711 1.321 0.103 0.389 0.15 0.79 0.141 1.192v3.395c-0.015 0.942-0.015 1.648-0.015 1.972 0 0.386 0.161 0.756 0.446 1.029s0.673 0.426 1.078 0.426 0.792-0.153 1.078-0.426c0.286-0.273 0.446-0.643 0.446-1.029 0-0.315 0-1.007 0.015-1.949v-3.418c0.012-0.643-0.067-1.285-0.236-1.908-0.048-0.204-0.107-0.406-0.177-0.605 2.318-0.368 4.424-1.509 5.944-3.22s2.354-3.881 2.354-6.124c0.050-0.463 0.074-0.929 0.070-1.395 0.034-2.009-0.644-3.97-1.924-5.565v-0z"></path>
</symbol>
<symbol id="icon-instagram" viewBox="0 0 36 32">
<path d="M17.778 8c-1.758 0-3.477 0.469-4.938 1.348s-2.601 2.128-3.274 3.59c-0.673 1.462-0.849 3.070-0.506 4.622s1.19 2.977 2.433 4.096c1.243 1.119 2.827 1.881 4.551 2.189s3.512 0.15 5.136-0.455 3.012-1.631 3.989-2.947c0.977-1.316 1.498-2.862 1.498-4.445 0-2.122-0.937-4.157-2.604-5.657s-3.928-2.343-6.285-2.343v0zM17.778 20.8c-1.055 0-2.086-0.282-2.963-0.809s-1.561-1.277-1.964-2.154c-0.404-0.877-0.509-1.842-0.303-2.773s0.714-1.786 1.46-2.458c0.746-0.671 1.696-1.128 2.731-1.314s2.107-0.090 3.082 0.273c0.974 0.363 1.807 0.979 2.393 1.768s0.899 1.717 0.899 2.667c0 1.273-0.562 2.494-1.562 3.394s-2.357 1.406-3.771 1.406zM26.667 6.4c-0.352 0-0.695 0.094-0.988 0.27s-0.52 0.426-0.655 0.718-0.17 0.614-0.101 0.924c0.069 0.31 0.238 0.595 0.487 0.819s0.565 0.376 0.91 0.438 0.702 0.030 1.027-0.091c0.325-0.121 0.602-0.326 0.798-0.589s0.3-0.572 0.3-0.889c0-0.424-0.187-0.831-0.521-1.131s-0.786-0.469-1.257-0.469zM35.449 9.984c-0.029-1.367-0.318-2.72-0.853-4-0.496-1.165-1.259-2.222-2.239-3.104s-2.155-1.569-3.449-2.016c-1.422-0.482-2.925-0.742-4.444-0.768-1.724-0.096-2.293-0.096-6.684-0.096s-4.96 0-6.684 0.096c-1.519 0.026-3.022 0.286-4.444 0.768-1.294 0.447-2.469 1.133-3.449 2.016s-1.743 1.94-2.239 3.104c-0.535 1.28-0.824 2.633-0.853 4-0.107 1.568-0.107 2.080-0.107 6.016s0 4.448 0.107 6.016c0.029 1.367 0.318 2.72 0.853 4 0.496 1.165 1.259 2.222 2.239 3.105s2.155 1.569 3.449 2.015c1.422 0.482 2.925 0.741 4.444 0.768 1.778 0 2.293 0.096 6.684 0.096s4.96 0 6.684-0.096c1.519-0.026 3.022-0.286 4.444-0.768 1.294-0.447 2.469-1.134 3.449-2.015s1.743-1.94 2.239-3.105c0.535-1.28 0.824-2.633 0.853-4 0-1.6 0.107-2.080 0.107-6.016s0-4.448-0.107-6.016zM31.893 21.872c-0.031 1.015-0.241 2.020-0.622 2.976-0.315 0.756-0.813 1.439-1.458 2-0.62 0.581-1.38 1.024-2.222 1.296-1.065 0.357-2.188 0.552-3.324 0.576-1.671 0-2.187 0.080-6.507 0.080s-4.818 0-6.489 0c-1.134-0.026-2.256-0.215-3.324-0.56-0.84-0.284-1.599-0.732-2.222-1.312-0.645-0.558-1.138-1.242-1.44-2-0.395-0.953-0.611-1.959-0.64-2.976 0-1.6 0-2 0-5.872s0-4.336 0-5.872c0.031-1.022 0.247-2.033 0.64-2.992 0.307-0.751 0.799-1.429 1.44-1.984 0.62-0.581 1.38-1.024 2.222-1.296 1.065-0.357 2.188-0.552 3.324-0.576 1.671-0.16 2.187-0.16 6.507-0.16s4.836 0 6.507 0c1.142 0.026 2.271 0.221 3.342 0.576 0.834 0.276 1.588 0.719 2.204 1.296 0.645 0.558 1.138 1.242 1.44 2 0.435 0.974 0.682 2.007 0.729 3.056 0 1.6 0.089 2 0.089 5.872s-0.089 4.336-0.089 5.872h-0.107z"></path>
</symbol>
<symbol id="icon-linkedin" viewBox="0 0 34 32">
<path d="M25.143 11.659c-1.364-0.001-2.707 0.321-3.909 0.936-0.11-0.275-0.305-0.512-0.559-0.68s-0.556-0.257-0.865-0.257h-6.095c-0.2-0-0.398 0.037-0.583 0.11s-0.353 0.18-0.494 0.315c-0.142 0.135-0.254 0.295-0.33 0.471s-0.116 0.365-0.116 0.556v17.434c-0 0.191 0.039 0.38 0.116 0.556s0.189 0.337 0.33 0.471c0.142 0.135 0.31 0.242 0.495 0.315s0.383 0.11 0.583 0.11h6.095c0.2 0 0.398-0.037 0.583-0.11s0.353-0.18 0.494-0.315c0.142-0.135 0.254-0.295 0.33-0.471s0.116-0.365 0.116-0.556v-7.99c0-0.385 0.16-0.755 0.446-1.027s0.673-0.425 1.078-0.425 0.792 0.153 1.078 0.425c0.286 0.272 0.446 0.642 0.446 1.027v7.99c-0 0.191 0.039 0.38 0.116 0.556s0.189 0.337 0.33 0.471c0.142 0.135 0.309 0.242 0.494 0.315s0.383 0.11 0.583 0.11h6.095c0.2 0 0.398-0.037 0.583-0.11s0.353-0.18 0.494-0.315c0.142-0.135 0.254-0.295 0.33-0.471s0.116-0.365 0.116-0.556v-10.896c-0.003-2.118-0.887-4.149-2.458-5.647s-3.701-2.341-5.923-2.343v0zM30.476 29.093h-3.048v-6.538c0-1.156-0.482-2.265-1.339-3.082s-2.020-1.277-3.232-1.277c-1.212 0-2.375 0.459-3.233 1.277s-1.339 1.926-1.339 3.082v6.538h-3.048v-14.528h3.048v1.022c0 0.301 0.098 0.595 0.281 0.84s0.441 0.431 0.739 0.531c0.298 0.1 0.621 0.109 0.924 0.026s0.573-0.254 0.77-0.488c0.684-0.828 1.622-1.432 2.683-1.727s2.192-0.267 3.236 0.080c1.044 0.348 1.947 0.997 2.585 1.858s0.978 1.89 0.972 2.944v9.443zM9.143 11.659h-6.095c-0.2-0-0.398 0.037-0.583 0.11s-0.353 0.18-0.494 0.315c-0.142 0.135-0.254 0.295-0.33 0.471s-0.116 0.365-0.116 0.556v17.434c-0 0.191 0.039 0.38 0.116 0.556s0.189 0.337 0.33 0.471c0.142 0.135 0.31 0.242 0.494 0.315s0.383 0.11 0.583 0.11h6.095c0.2 0 0.398-0.037 0.583-0.11s0.353-0.18 0.495-0.315c0.142-0.135 0.254-0.295 0.33-0.471s0.116-0.365 0.116-0.556v-17.434c0-0.191-0.039-0.38-0.116-0.556s-0.189-0.336-0.33-0.471c-0.142-0.135-0.31-0.242-0.494-0.315s-0.383-0.11-0.583-0.11v0zM7.619 29.093h-3.048v-14.528h3.048v14.528zM6.118 0.825c-0.667-0.038-1.335 0.054-1.963 0.269s-1.204 0.551-1.693 0.986c-0.488 0.435-0.879 0.96-1.148 1.543s-0.411 1.212-0.416 1.849c-0.006 0.637 0.124 1.268 0.382 1.856s0.639 1.119 1.119 1.562c0.48 0.443 1.050 0.788 1.674 1.014s1.291 0.329 1.958 0.302h0.043c0.669 0.038 1.338-0.055 1.968-0.272s1.207-0.555 1.695-0.992c0.489-0.437 0.878-0.964 1.146-1.55s0.407-1.217 0.41-1.855c0.003-0.639-0.131-1.271-0.393-1.859s-0.647-1.118-1.132-1.559c-0.484-0.441-1.058-0.783-1.686-1.006s-1.297-0.321-1.966-0.288v0zM6.074 7.301h-0.043c-0.263 0.030-0.531 0.007-0.784-0.069s-0.486-0.203-0.684-0.372c-0.198-0.169-0.355-0.376-0.462-0.608s-0.16-0.483-0.157-0.736c0-1.084 0.853-1.785 2.173-1.785 0.266-0.034 0.537-0.013 0.794 0.061s0.494 0.2 0.696 0.369c0.202 0.169 0.363 0.377 0.473 0.611s0.166 0.487 0.165 0.743c0 1.084-0.853 1.785-2.171 1.785z"></path>
</symbol>
<symbol id="icon-twitter" viewBox="0 0 39 32">
<path d="M38.722 3.167c0-0.282-0.078-0.558-0.228-0.802s-0.364-0.445-0.623-0.584c-0.259-0.139-0.552-0.211-0.849-0.208s-0.589 0.080-0.844 0.224c-0.986 0.555-2.047 0.981-3.155 1.264-1.581-1.285-3.599-1.988-5.683-1.98-2.286 0.002-4.482 0.846-6.123 2.352s-2.6 3.557-2.674 5.72c-4.507-0.68-8.592-2.907-11.476-6.256-0.174-0.2-0.396-0.357-0.647-0.458s-0.525-0.144-0.797-0.124c-0.272 0.021-0.535 0.105-0.765 0.244s-0.422 0.329-0.557 0.553c-0.695 1.148-1.094 2.434-1.165 3.755s0.188 2.639 0.757 3.847l-0.003 0.003c-0.255 0.149-0.466 0.357-0.612 0.605s-0.222 0.527-0.222 0.811c-0.003 0.234 0.012 0.468 0.044 0.701 0.172 2.006 1.111 3.884 2.641 5.281-0.104 0.187-0.167 0.392-0.186 0.603s0.006 0.423 0.075 0.624c0.667 1.968 2.086 3.628 3.979 4.658-1.923 0.704-3.999 0.949-6.046 0.715-0.379-0.045-0.763 0.033-1.088 0.222s-0.574 0.476-0.704 0.816-0.135 0.711-0.012 1.054c0.122 0.342 0.364 0.635 0.685 0.831 3.52 2.146 7.619 3.287 11.806 3.287 4.748 0.051 9.381-1.386 13.178-4.085s6.544-6.511 7.816-10.842c0.595-1.887 0.898-3.845 0.901-5.813 0-0.104 0-0.212-0.002-0.319 0.879-0.898 1.561-1.952 2.004-3.103s0.639-2.372 0.577-3.595v0zM33.153 8.287c-0.278 0.311-0.419 0.712-0.393 1.119 0.017 0.263 0.015 0.528 0.015 0.777-0.004 1.664-0.261 3.318-0.765 4.912-1.038 3.685-3.353 6.934-6.573 9.225s-7.16 3.494-11.188 3.415c-1.447 0-2.889-0.16-4.296-0.48 1.794-0.547 3.472-1.391 4.956-2.493 0.273-0.204 0.473-0.482 0.572-0.798s0.093-0.652-0.018-0.964-0.321-0.584-0.602-0.778c-0.281-0.194-0.618-0.302-0.966-0.307-1.4-0.021-2.737-0.555-3.729-1.49 0.252-0.045 0.502-0.101 0.75-0.168 0.364-0.098 0.682-0.309 0.904-0.599s0.334-0.642 0.318-1-0.158-0.7-0.404-0.972c-0.246-0.272-0.582-0.457-0.953-0.527-0.813-0.152-1.577-0.479-2.234-0.956s-1.189-1.091-1.555-1.795c0.304 0.039 0.611 0.064 0.918 0.073 0.365 0.005 0.722-0.1 1.020-0.299s0.521-0.484 0.637-0.811c0.111-0.33 0.105-0.686-0.016-1.013s-0.353-0.608-0.658-0.799c-0.741-0.467-1.348-1.101-1.766-1.845s-0.636-1.574-0.632-2.417c0-0.106 0.003-0.212 0.010-0.316 3.775 3.332 8.671 5.297 13.826 5.547 0.26 0.010 0.519-0.037 0.758-0.136s0.45-0.248 0.619-0.436c0.167-0.19 0.285-0.413 0.346-0.653s0.061-0.49 0.001-0.731c-0.096-0.38-0.145-0.77-0.146-1.161 0.002-1.364 0.575-2.671 1.593-3.636s2.4-1.507 3.841-1.508c0.741-0.002 1.475 0.142 2.155 0.422s1.291 0.69 1.794 1.205c0.194 0.198 0.439 0.345 0.71 0.428s0.561 0.099 0.841 0.046c0.692-0.127 1.374-0.299 2.041-0.514-0.455 0.882-1.037 1.699-1.728 2.43v0z"></path>
</symbol>
</defs>
</svg>
