<svg width="23" height="19" viewBox="0 0 23 19" fill="none" xmlns="http://www.w3.org/2000/svg">
<path d="M22.9912 1.8803C22.9913 1.71311 22.9447 1.54887 22.8559 1.40431C22.7671 1.25975 22.6395 1.14004 22.486 1.05737C22.3324 0.974704 22.1585 0.932027 21.9819 0.933687C21.8053 0.935348 21.6323 0.981289 21.4805 1.06683C20.8952 1.39661 20.265 1.64915 19.6075 1.81747C18.6685 1.05474 17.4708 0.637368 16.2335 0.641634C14.8761 0.643113 13.5724 1.14388 12.5977 2.0382C11.623 2.93252 11.0537 4.15039 11.0099 5.43464C8.33384 5.03069 5.90849 3.70857 4.19631 1.72038C4.09315 1.6019 3.9614 1.50864 3.81217 1.44847C3.66295 1.3883 3.50062 1.36297 3.33889 1.37464C3.17725 1.38724 3.02128 1.43692 2.88448 1.51938C2.74768 1.60185 2.63416 1.71461 2.55373 1.84793C2.14126 2.52929 1.90436 3.29313 1.86228 4.07742C1.8202 4.86171 1.97412 5.64434 2.31154 6.36176L2.30959 6.3636C2.15794 6.45202 2.03278 6.57579 1.94609 6.72307C1.85941 6.87035 1.81409 7.03622 1.81447 7.20481C1.81263 7.34389 1.82145 7.48292 1.84084 7.62079C1.94298 8.81184 2.50062 9.92672 3.4092 10.7563C3.34756 10.8675 3.30994 10.9892 3.29854 11.1142C3.28714 11.2393 3.30218 11.3653 3.34279 11.4848C3.7389 12.653 4.58129 13.6392 5.7051 14.2506C4.56334 14.6685 3.33052 14.8142 2.11525 14.6749C1.89032 14.6481 1.66248 14.6946 1.4691 14.8066C1.27572 14.9185 1.12828 15.0894 1.05097 15.2911C0.973654 15.4928 0.97106 15.7134 1.04361 15.9167C1.11616 16.12 1.25955 16.2939 1.45025 16.41C3.54034 17.6842 5.97393 18.3617 8.46002 18.3614C11.2793 18.3914 14.03 17.5386 16.2843 15.9357C18.5385 14.3328 20.17 12.0696 20.9248 9.49821C21.2779 8.37806 21.4582 7.2155 21.46 6.04655C21.46 5.98462 21.46 5.92084 21.459 5.85706C21.9811 5.32407 22.3856 4.69778 22.6487 4.01491C22.9118 3.33204 23.0283 2.60633 22.9912 1.8803V1.8803ZM19.6846 4.92064C19.5194 5.10555 19.4358 5.34357 19.4512 5.58529C19.461 5.74147 19.46 5.8986 19.46 6.04655C19.4579 7.03435 19.305 8.01668 19.0059 8.96303C18.3894 11.151 17.015 13.0798 15.103 14.4405C13.1909 15.8013 10.8517 16.5153 8.46002 16.4682C7.6009 16.4685 6.74474 16.3729 5.90924 16.1835C6.97465 15.8585 7.97083 15.3574 8.85162 14.7035C9.01385 14.5826 9.13257 14.4172 9.19151 14.2299C9.25044 14.0425 9.2467 13.8425 9.18079 13.6573C9.11489 13.4721 8.99005 13.3107 8.8234 13.1953C8.65675 13.0799 8.45647 13.0162 8.25002 13.0128C7.41885 13.0006 6.62515 12.6834 6.03615 12.1282C6.18557 12.1014 6.33401 12.0681 6.48147 12.0283C6.69748 11.9701 6.88651 11.8448 7.01813 11.6725C7.14975 11.5003 7.21629 11.2911 7.20704 11.0787C7.1978 10.8663 7.1133 10.663 6.96715 10.5016C6.82101 10.3401 6.62173 10.23 6.40139 10.1888C5.91893 10.0986 5.46494 9.9043 5.0747 9.62101C4.68447 9.33771 4.36852 8.97305 4.15139 8.55537C4.33212 8.57872 4.514 8.59322 4.69631 8.59882C4.91289 8.60191 5.1249 8.53972 5.30169 8.42124C5.47847 8.30276 5.61086 8.13412 5.67971 7.93972C5.74569 7.74355 5.74229 7.53237 5.67004 7.3382C5.59778 7.14402 5.46061 6.97744 5.27932 6.86372C4.83947 6.58635 4.47916 6.21003 4.23068 5.76848C3.98219 5.32694 3.85328 4.83394 3.85549 4.33366C3.85549 4.2708 3.85744 4.20794 3.86135 4.14601C6.10261 6.12461 9.00967 7.29098 12.0703 7.43963C12.2248 7.44539 12.3787 7.41785 12.5203 7.35908C12.6619 7.30031 12.7875 7.21185 12.8877 7.10038C12.9869 6.98783 13.0571 6.85503 13.0929 6.71243C13.1286 6.56983 13.1289 6.42132 13.0937 6.27859C13.0366 6.0527 13.0074 5.82127 13.0068 5.58899C13.0077 4.77922 13.348 4.00286 13.9529 3.43027C14.5578 2.85768 15.378 2.53563 16.2334 2.53477C16.6736 2.53366 17.1092 2.61892 17.5127 2.78519C17.9163 2.95145 18.2791 3.19511 18.5781 3.50077C18.6935 3.61822 18.8386 3.70579 18.9998 3.75515C19.161 3.8045 19.3329 3.814 19.499 3.78275C19.9098 3.70707 20.3147 3.60516 20.7109 3.4777C20.4407 4.00113 20.0953 4.48671 19.6846 4.92064V4.92064Z" fill="#232E35"/>
</svg>
