<svg width="18" height="17" viewBox="0 0 18 17" fill="none" xmlns="http://www.w3.org/2000/svg">
<path fill-rule="evenodd" clip-rule="evenodd" d="M10.0878 0.237715C9.43681 -0.0758562 8.55464 -0.0806946 7.89841 0.232069C5.60476 1.64074 3.1796 2.98359 1.10231 4.33005C0.793141 4.56581 0.573731 4.9084 0.577475 5.31166C0.581203 5.71325 0.805078 6.05127 1.11237 6.28314C3.1796 7.45973 5.60476 8.80257 7.84769 10.3444C8.49872 10.6579 9.38089 10.6628 10.0371 10.35C12.3952 8.80257 13.3653 8.35496 16.8332 6.25203C17.1424 6.01628 17.3618 5.67368 17.3581 5.27043C17.3543 4.86883 17.1305 4.53082 16.8232 4.29895C14.8204 2.98359 12.3952 1.64074 10.0878 0.237715ZM8.56611 1.42519C8.7986 1.31438 9.18051 1.31543 9.41458 1.42817C11.4252 2.53597 13.3653 3.87881 15.8238 5.27961C13.8503 6.5645 11.9102 7.90734 9.36942 9.1569C9.13693 9.2677 8.75502 9.26665 8.52095 9.15391C6.20197 7.90734 4.14966 6.5645 2.11175 5.30247C4.14966 3.87881 5.60476 2.98359 8.56611 1.42519Z" fill="#7E74F1"/>
<path d="M17.8895 8.59715C18.1023 8.9117 17.9985 9.32588 17.6577 9.52226L11.7332 12.9357C10.9401 13.2787 9.96418 13.7263 9 13.7263C8.03581 13.7264 7.05987 13.2787 6.20197 12.936L0.342448 9.5612C0.00157168 9.36487 -0.102304 8.9507 0.110436 8.63612C0.323176 8.32154 0.771971 8.22568 1.11285 8.42201L6.97237 11.7968C7.50023 12.1008 8.2497 12.3835 9 12.3835C9.7503 12.3834 10.4349 12.1007 10.9626 11.7966L16.8871 8.38319C17.2279 8.18681 17.6767 8.2826 17.8895 8.59715Z" fill="#7E74F1"/>
<path d="M17.8895 11.9584C18.1023 12.2729 17.9985 12.6871 17.6577 12.8836L12.5271 15.8404C10.9401 16.557 10.2178 16.9999 8.96764 17C7.7175 17.0001 6.0898 16.1094 5.40793 15.8408L0.342374 12.9225C0.00152299 12.7261 -0.102298 12.3119 0.110482 11.9974C0.323263 11.6828 0.772071 11.587 1.11292 11.7834L6.17848 14.7017C6.92836 15.1337 7.93142 15.5168 8.96764 15.5168C10.0039 15.5167 11.0067 15.1335 11.7564 14.7014L16.887 11.7446C17.2278 11.5481 17.6766 11.6439 17.8895 11.9584Z" fill="#7E74F1"/>
</svg>
